<svg width="94" height="15" viewBox="0 0 94 15" fill="none" xmlns="http://www.w3.org/2000/svg">
<circle cx="3" cy="8" r="3" fill="#CD0000"/>
<path d="M14.75 12H12.0568V3.27273H14.8693C15.7159 3.27273 16.4403 3.44744 17.0426 3.79688C17.6449 4.14347 18.1065 4.64205 18.4276 5.29261C18.7486 5.94034 18.9091 6.71591 18.9091 7.61932C18.9091 8.52841 18.7472 9.31108 18.4233 9.96733C18.0994 10.6207 17.6278 11.1236 17.0085 11.4759C16.3892 11.8253 15.6364 12 14.75 12ZM13.1136 11.0625H14.6818C15.4034 11.0625 16.0014 10.9233 16.4759 10.6449C16.9503 10.3665 17.304 9.97017 17.5369 9.45597C17.7699 8.94176 17.8864 8.32955 17.8864 7.61932C17.8864 6.91477 17.7713 6.30824 17.5412 5.79972C17.3111 5.28835 16.9673 4.89631 16.5099 4.62358C16.0526 4.34801 15.483 4.21023 14.8011 4.21023H13.1136V11.0625ZM23.2898 12.1364C22.6591 12.1364 22.1151 11.9972 21.6577 11.7188C21.2031 11.4375 20.8523 11.0455 20.6051 10.5426C20.3608 10.0369 20.2386 9.44886 20.2386 8.77841C20.2386 8.10795 20.3608 7.51705 20.6051 7.00568C20.8523 6.49148 21.196 6.09091 21.6364 5.80398C22.0795 5.5142 22.5966 5.36932 23.1875 5.36932C23.5284 5.36932 23.8651 5.42614 24.1974 5.53977C24.5298 5.65341 24.8324 5.83807 25.1051 6.09375C25.3778 6.34659 25.5952 6.68182 25.7571 7.09943C25.919 7.51705 26 8.03125 26 8.64205V9.06818H20.9545V8.19886H24.9773C24.9773 7.82955 24.9034 7.5 24.7557 7.21023C24.6108 6.92045 24.4034 6.69176 24.1335 6.52415C23.8665 6.35653 23.5511 6.27273 23.1875 6.27273C22.7869 6.27273 22.4403 6.37216 22.1477 6.57102C21.858 6.76705 21.6349 7.02273 21.4787 7.33807C21.3224 7.65341 21.2443 7.99148 21.2443 8.35227V8.93182C21.2443 9.42614 21.3295 9.84517 21.5 10.1889C21.6733 10.5298 21.9134 10.7898 22.2202 10.9688C22.527 11.1449 22.8835 11.233 23.2898 11.233C23.554 11.233 23.7926 11.196 24.0057 11.1222C24.2216 11.0455 24.4077 10.9318 24.5639 10.7812C24.7202 10.6278 24.8409 10.4375 24.9261 10.2102L25.8977 10.483C25.7955 10.8125 25.6236 11.1023 25.3821 11.3523C25.1406 11.5994 24.8423 11.7926 24.4872 11.9318C24.1321 12.0682 23.733 12.1364 23.2898 12.1364ZM32.1662 6.92045L31.2628 7.17614C31.206 7.02557 31.1222 6.87926 31.0114 6.73722C30.9034 6.59233 30.7557 6.47301 30.5682 6.37926C30.3807 6.28551 30.1406 6.23864 29.848 6.23864C29.4474 6.23864 29.1136 6.33097 28.8466 6.51562C28.5824 6.69744 28.4503 6.92898 28.4503 7.21023C28.4503 7.46023 28.5412 7.65767 28.723 7.80256C28.9048 7.94744 29.1889 8.06818 29.5753 8.16477L30.5469 8.40341C31.1321 8.54545 31.5682 8.76278 31.8551 9.0554C32.142 9.34517 32.2855 9.71875 32.2855 10.1761C32.2855 10.5511 32.1776 10.8864 31.9616 11.1818C31.7486 11.4773 31.4503 11.7102 31.0668 11.8807C30.6832 12.0511 30.2372 12.1364 29.7287 12.1364C29.0611 12.1364 28.5085 11.9915 28.071 11.7017C27.6335 11.4119 27.3565 10.9886 27.2401 10.4318L28.1946 10.1932C28.2855 10.5455 28.4574 10.8097 28.7102 10.9858C28.9659 11.1619 29.2997 11.25 29.7116 11.25C30.1804 11.25 30.5526 11.1506 30.8281 10.9517C31.1065 10.75 31.2457 10.5085 31.2457 10.2273C31.2457 10 31.1662 9.80966 31.0071 9.65625C30.848 9.5 30.6037 9.38352 30.2741 9.30682L29.1832 9.05114C28.5838 8.90909 28.1435 8.68892 27.8622 8.39062C27.5838 8.08949 27.4446 7.71307 27.4446 7.26136C27.4446 6.89205 27.5483 6.56534 27.7557 6.28125C27.9659 5.99716 28.2514 5.77415 28.6122 5.61222C28.9759 5.45028 29.3878 5.36932 29.848 5.36932C30.4957 5.36932 31.0043 5.51136 31.3736 5.79545C31.7457 6.07955 32.0099 6.45455 32.1662 6.92045ZM36.4585 12.1364C35.8448 12.1364 35.3164 11.9915 34.8732 11.7017C34.43 11.4119 34.0891 11.0128 33.8505 10.5043C33.6119 9.99574 33.4925 9.41477 33.4925 8.76136C33.4925 8.09659 33.6147 7.50994 33.859 7.00142C34.1062 6.49006 34.4499 6.09091 34.8903 5.80398C35.3335 5.5142 35.8505 5.36932 36.4414 5.36932C36.9016 5.36932 37.3164 5.45455 37.6857 5.625C38.055 5.79545 38.3576 6.03409 38.5934 6.34091C38.8292 6.64773 38.9755 7.00568 39.0323 7.41477H38.0266C37.9499 7.11648 37.7795 6.85227 37.5153 6.62216C37.2539 6.3892 36.9016 6.27273 36.4585 6.27273C36.0664 6.27273 35.7227 6.375 35.4272 6.57955C35.1346 6.78125 34.9059 7.06676 34.7411 7.43608C34.5792 7.80256 34.4982 8.23295 34.4982 8.72727C34.4982 9.23295 34.5778 9.6733 34.7369 10.0483C34.8988 10.4233 35.1261 10.7145 35.4187 10.9219C35.7141 11.1293 36.0607 11.233 36.4585 11.233C36.7198 11.233 36.957 11.1875 37.1701 11.0966C37.3832 11.0057 37.5636 10.875 37.7113 10.7045C37.859 10.5341 37.9641 10.3295 38.0266 10.0909H39.0323C38.9755 10.4773 38.8349 10.8253 38.6104 11.1349C38.3888 11.4418 38.0948 11.6861 37.7283 11.8679C37.3647 12.0469 36.9414 12.1364 36.4585 12.1364ZM43.1616 12.1364C42.5707 12.1364 42.0522 11.9957 41.6062 11.7145C41.163 11.4332 40.8164 11.0398 40.5664 10.5341C40.3192 10.0284 40.1957 9.4375 40.1957 8.76136C40.1957 8.07955 40.3192 7.48437 40.5664 6.97585C40.8164 6.46733 41.163 6.07244 41.6062 5.79119C42.0522 5.50994 42.5707 5.36932 43.1616 5.36932C43.7525 5.36932 44.2695 5.50994 44.7127 5.79119C45.1587 6.07244 45.5053 6.46733 45.7525 6.97585C46.0025 7.48437 46.1275 8.07955 46.1275 8.76136C46.1275 9.4375 46.0025 10.0284 45.7525 10.5341C45.5053 11.0398 45.1587 11.4332 44.7127 11.7145C44.2695 11.9957 43.7525 12.1364 43.1616 12.1364ZM43.1616 11.233C43.6104 11.233 43.9798 11.1179 44.2695 10.8878C44.5593 10.6577 44.7738 10.3551 44.913 9.98011C45.0522 9.60511 45.1218 9.19886 45.1218 8.76136C45.1218 8.32386 45.0522 7.91619 44.913 7.53835C44.7738 7.16051 44.5593 6.85511 44.2695 6.62216C43.9798 6.3892 43.6104 6.27273 43.1616 6.27273C42.7127 6.27273 42.3434 6.3892 42.0536 6.62216C41.7638 6.85511 41.5494 7.16051 41.4102 7.53835C41.271 7.91619 41.2013 8.32386 41.2013 8.76136C41.2013 9.19886 41.271 9.60511 41.4102 9.98011C41.5494 10.3551 41.7638 10.6577 42.0536 10.8878C42.3434 11.1179 42.7127 11.233 43.1616 11.233ZM48.6683 8.0625V12H47.6626V5.45455H48.6342V6.47727H48.7195C48.8729 6.14489 49.1058 5.87784 49.4183 5.67614C49.7308 5.47159 50.1342 5.36932 50.6286 5.36932C51.0717 5.36932 51.4595 5.46023 51.7919 5.64205C52.1243 5.82102 52.3828 6.09375 52.5675 6.46023C52.7521 6.82386 52.8445 7.28409 52.8445 7.84091V12H51.8388V7.90909C51.8388 7.39489 51.7053 6.99432 51.4382 6.70739C51.1712 6.41761 50.8047 6.27273 50.3388 6.27273C50.0178 6.27273 49.7308 6.34233 49.478 6.48153C49.228 6.62074 49.0305 6.82386 48.8857 7.09091C48.7408 7.35795 48.6683 7.68182 48.6683 8.0625ZM57.4265 12.1364C56.7958 12.1364 56.2518 11.9972 55.7944 11.7188C55.3398 11.4375 54.989 11.0455 54.7418 10.5426C54.4975 10.0369 54.3754 9.44886 54.3754 8.77841C54.3754 8.10795 54.4975 7.51705 54.7418 7.00568C54.989 6.49148 55.3327 6.09091 55.7731 5.80398C56.2163 5.5142 56.7333 5.36932 57.3242 5.36932C57.6651 5.36932 58.0018 5.42614 58.3342 5.53977C58.6665 5.65341 58.9691 5.83807 59.2418 6.09375C59.5146 6.34659 59.7319 6.68182 59.8938 7.09943C60.0558 7.51705 60.1367 8.03125 60.1367 8.64205V9.06818H55.0913V8.19886H59.114C59.114 7.82955 59.0401 7.5 58.8924 7.21023C58.7475 6.92045 58.5401 6.69176 58.2702 6.52415C58.0032 6.35653 57.6879 6.27273 57.3242 6.27273C56.9237 6.27273 56.5771 6.37216 56.2844 6.57102C55.9947 6.76705 55.7717 7.02273 55.6154 7.33807C55.4592 7.65341 55.381 7.99148 55.381 8.35227V8.93182C55.381 9.42614 55.4663 9.84517 55.6367 10.1889C55.81 10.5298 56.0501 10.7898 56.3569 10.9688C56.6637 11.1449 57.0202 11.233 57.4265 11.233C57.6907 11.233 57.9293 11.196 58.1424 11.1222C58.3583 11.0455 58.5444 10.9318 58.7006 10.7812C58.8569 10.6278 58.9776 10.4375 59.0629 10.2102L60.0344 10.483C59.9322 10.8125 59.7603 11.1023 59.5188 11.3523C59.2773 11.5994 58.979 11.7926 58.6239 11.9318C58.2688 12.0682 57.8697 12.1364 57.4265 12.1364ZM64.3256 12.1364C63.712 12.1364 63.1836 11.9915 62.7404 11.7017C62.2972 11.4119 61.9563 11.0128 61.7177 10.5043C61.479 9.99574 61.3597 9.41477 61.3597 8.76136C61.3597 8.09659 61.4819 7.50994 61.7262 7.00142C61.9734 6.49006 62.3171 6.09091 62.7575 5.80398C63.2006 5.5142 63.7177 5.36932 64.3086 5.36932C64.7688 5.36932 65.1836 5.45455 65.5529 5.625C65.9222 5.79545 66.2248 6.03409 66.4606 6.34091C66.6964 6.64773 66.8427 7.00568 66.8995 7.41477H65.8938C65.8171 7.11648 65.6467 6.85227 65.3825 6.62216C65.1211 6.3892 64.7688 6.27273 64.3256 6.27273C63.9336 6.27273 63.5898 6.375 63.2944 6.57955C63.0018 6.78125 62.7731 7.06676 62.6083 7.43608C62.4464 7.80256 62.3654 8.23295 62.3654 8.72727C62.3654 9.23295 62.445 9.6733 62.604 10.0483C62.766 10.4233 62.9933 10.7145 63.2859 10.9219C63.5813 11.1293 63.9279 11.233 64.3256 11.233C64.587 11.233 64.8242 11.1875 65.0373 11.0966C65.2504 11.0057 65.4308 10.875 65.5785 10.7045C65.7262 10.5341 65.8313 10.3295 65.8938 10.0909H66.8995C66.8427 10.4773 66.7021 10.8253 66.4776 11.1349C66.256 11.4418 65.962 11.6861 65.5955 11.8679C65.2319 12.0469 64.8086 12.1364 64.3256 12.1364ZM71.2163 5.45455V6.30682H67.8242V5.45455H71.2163ZM68.8129 3.88636H69.8185V10.125C69.8185 10.4091 69.8597 10.6222 69.9421 10.7642C70.0273 10.9034 70.1353 10.9972 70.266 11.0455C70.3995 11.0909 70.5401 11.1136 70.6879 11.1136C70.7987 11.1136 70.8896 11.108 70.9606 11.0966C71.0316 11.0824 71.0884 11.071 71.131 11.0625L71.3356 11.9659C71.2674 11.9915 71.1722 12.017 71.0501 12.0426C70.9279 12.071 70.7731 12.0852 70.5856 12.0852C70.3015 12.0852 70.0231 12.0241 69.7504 11.902C69.4805 11.7798 69.256 11.5938 69.0771 11.3438C68.9009 11.0938 68.8129 10.7784 68.8129 10.3977V3.88636ZM74.6552 12.1534C74.2404 12.1534 73.864 12.0753 73.5259 11.919C73.1879 11.7599 72.9194 11.5312 72.7205 11.233C72.5217 10.9318 72.4222 10.5682 72.4222 10.142C72.4222 9.76705 72.4961 9.46307 72.6438 9.23011C72.7915 8.99432 72.989 8.80966 73.2362 8.67614C73.4833 8.54261 73.756 8.44318 74.0543 8.37784C74.3555 8.30966 74.658 8.25568 74.962 8.21591C75.3597 8.16477 75.6822 8.12642 75.9293 8.10085C76.1793 8.07244 76.3612 8.02557 76.4748 7.96023C76.5913 7.89489 76.6495 7.78125 76.6495 7.61932V7.58523C76.6495 7.16477 76.5344 6.83807 76.3043 6.60511C76.0771 6.37216 75.7319 6.25568 75.2688 6.25568C74.7887 6.25568 74.4123 6.3608 74.1396 6.57102C73.8668 6.78125 73.6751 7.00568 73.5643 7.24432L72.6097 6.90341C72.7802 6.50568 73.0075 6.19602 73.2915 5.97443C73.5785 5.75 73.891 5.59375 74.229 5.50568C74.57 5.41477 74.9052 5.36932 75.2347 5.36932C75.445 5.36932 75.6864 5.39489 75.9592 5.44602C76.2347 5.49432 76.5004 5.59517 76.756 5.74858C77.0146 5.90199 77.229 6.13352 77.3995 6.44318C77.57 6.75284 77.6552 7.16761 77.6552 7.6875V12H76.6495V11.1136H76.5984C76.5302 11.2557 76.4165 11.4077 76.2575 11.5696C76.0984 11.7315 75.8867 11.8693 75.6225 11.983C75.3583 12.0966 75.0359 12.1534 74.6552 12.1534ZM74.8086 11.25C75.2063 11.25 75.5415 11.1719 75.8143 11.0156C76.0898 10.8594 76.2972 10.6577 76.4364 10.4105C76.5785 10.1634 76.6495 9.90341 76.6495 9.63068V8.71023C76.6069 8.76136 76.5131 8.80824 76.3683 8.85085C76.2262 8.89062 76.0614 8.92614 75.8739 8.95739C75.6893 8.9858 75.5089 9.01136 75.3327 9.03409C75.1594 9.05398 75.0188 9.07102 74.9109 9.08523C74.6495 9.11932 74.4052 9.17472 74.1779 9.25142C73.9535 9.32528 73.7717 9.4375 73.6325 9.58807C73.4961 9.7358 73.4279 9.9375 73.4279 10.1932C73.4279 10.5426 73.5572 10.8068 73.8157 10.9858C74.0771 11.1619 74.408 11.25 74.8086 11.25ZM81.9624 12.1364C81.4169 12.1364 80.9354 11.9986 80.5178 11.723C80.1001 11.4446 79.7734 11.0526 79.5376 10.5469C79.3018 10.0384 79.1839 9.4375 79.1839 8.74432C79.1839 8.05682 79.3018 7.46023 79.5376 6.95455C79.7734 6.44886 80.1016 6.05824 80.522 5.78267C80.9425 5.5071 81.4283 5.36932 81.9794 5.36932C82.4055 5.36932 82.7422 5.44034 82.9893 5.58239C83.2393 5.72159 83.4297 5.88068 83.5604 6.05966C83.6939 6.2358 83.7976 6.38068 83.8714 6.49432H83.9567V3.27273H84.9624V12H83.9908V10.9943H83.8714C83.7976 11.1136 83.6925 11.2642 83.5561 11.446C83.4197 11.625 83.2251 11.7855 82.9723 11.9276C82.7195 12.0668 82.3828 12.1364 81.9624 12.1364ZM82.0987 11.233C82.5021 11.233 82.843 11.1278 83.1214 10.9176C83.3999 10.7045 83.6115 10.4105 83.7564 10.0355C83.9013 9.65767 83.9737 9.22159 83.9737 8.72727C83.9737 8.23864 83.9027 7.81108 83.7607 7.4446C83.6186 7.07528 83.4084 6.78835 83.13 6.58381C82.8516 6.37642 82.5078 6.27273 82.0987 6.27273C81.6726 6.27273 81.3175 6.3821 81.0334 6.60085C80.7521 6.81676 80.5405 7.1108 80.3984 7.48295C80.2592 7.85227 80.1896 8.26705 80.1896 8.72727C80.1896 9.19318 80.2607 9.61648 80.4027 9.99716C80.5476 10.375 80.7607 10.6761 81.0419 10.9006C81.326 11.1222 81.6783 11.233 82.0987 11.233ZM89.603 12.1364C89.0121 12.1364 88.4936 11.9957 88.0476 11.7145C87.6044 11.4332 87.2578 11.0398 87.0078 10.5341C86.7607 10.0284 86.6371 9.4375 86.6371 8.76136C86.6371 8.07955 86.7607 7.48437 87.0078 6.97585C87.2578 6.46733 87.6044 6.07244 88.0476 5.79119C88.4936 5.50994 89.0121 5.36932 89.603 5.36932C90.1939 5.36932 90.7109 5.50994 91.1541 5.79119C91.6001 6.07244 91.9467 6.46733 92.1939 6.97585C92.4439 7.48437 92.5689 8.07955 92.5689 8.76136C92.5689 9.4375 92.4439 10.0284 92.1939 10.5341C91.9467 11.0398 91.6001 11.4332 91.1541 11.7145C90.7109 11.9957 90.1939 12.1364 89.603 12.1364ZM89.603 11.233C90.0518 11.233 90.4212 11.1179 90.7109 10.8878C91.0007 10.6577 91.2152 10.3551 91.3544 9.98011C91.4936 9.60511 91.5632 9.19886 91.5632 8.76136C91.5632 8.32386 91.4936 7.91619 91.3544 7.53835C91.2152 7.16051 91.0007 6.85511 90.7109 6.62216C90.4212 6.3892 90.0518 6.27273 89.603 6.27273C89.1541 6.27273 88.7848 6.3892 88.495 6.62216C88.2053 6.85511 87.9908 7.16051 87.8516 7.53835C87.7124 7.91619 87.6428 8.32386 87.6428 8.76136C87.6428 9.19886 87.7124 9.60511 87.8516 9.98011C87.9908 10.3551 88.2053 10.6577 88.495 10.8878C88.7848 11.1179 89.1541 11.233 89.603 11.233Z" fill="#CD0000"/>
</svg>
