<svg width="56" height="15" viewBox="0 0 56 15" fill="none" xmlns="http://www.w3.org/2000/svg">
<circle cx="3" cy="8" r="3" fill="#00CD2D"/>
<path d="M12.0568 12V3.27273H17.3239V4.21023H13.1136V7.15909H17.0511V8.09659H13.1136V11.0625H17.392V12H12.0568ZM20.098 8.0625V12H19.0923V5.45455H20.0639V6.47727H20.1491C20.3026 6.14489 20.5355 5.87784 20.848 5.67614C21.1605 5.47159 21.5639 5.36932 22.0582 5.36932C22.5014 5.36932 22.8892 5.46023 23.2216 5.64205C23.554 5.82102 23.8125 6.09375 23.9972 6.46023C24.1818 6.82386 24.2741 7.28409 24.2741 7.84091V12H23.2685V7.90909C23.2685 7.39489 23.1349 6.99432 22.8679 6.70739C22.6009 6.41761 22.2344 6.27273 21.7685 6.27273C21.4474 6.27273 21.1605 6.34233 20.9077 6.48153C20.6577 6.62074 20.4602 6.82386 20.3153 7.09091C20.1705 7.35795 20.098 7.68182 20.098 8.0625ZM30.4925 3.27273V12H29.4869V3.27273H30.4925ZM32.3345 12V5.45455H33.3402V12H32.3345ZM32.3857 4.56818L33.4254 2.59091H34.6016L33.272 4.56818H32.3857ZM36.1879 8.0625V12H35.1822V5.45455H36.1538V6.47727H36.239C36.3924 6.14489 36.6254 5.87784 36.9379 5.67614C37.2504 5.47159 37.6538 5.36932 38.1481 5.36932C38.5913 5.36932 38.979 5.46023 39.3114 5.64205C39.6438 5.82102 39.9023 6.09375 40.087 6.46023C40.2717 6.82386 40.364 7.28409 40.364 7.84091V12H39.3583V7.90909C39.3583 7.39489 39.2248 6.99432 38.9577 6.70739C38.6907 6.41761 38.3242 6.27273 37.8583 6.27273C37.5373 6.27273 37.2504 6.34233 36.9975 6.48153C36.7475 6.62074 36.5501 6.82386 36.4052 7.09091C36.2603 7.35795 36.1879 7.68182 36.1879 8.0625ZM44.946 12.1364C44.3153 12.1364 43.7713 11.9972 43.3139 11.7188C42.8594 11.4375 42.5085 11.0455 42.2614 10.5426C42.017 10.0369 41.8949 9.44886 41.8949 8.77841C41.8949 8.10795 42.017 7.51705 42.2614 7.00568C42.5085 6.49148 42.8523 6.09091 43.2926 5.80398C43.7358 5.5142 44.2528 5.36932 44.8438 5.36932C45.1847 5.36932 45.5213 5.42614 45.8537 5.53977C46.1861 5.65341 46.4886 5.83807 46.7614 6.09375C47.0341 6.34659 47.2514 6.68182 47.4134 7.09943C47.5753 7.51705 47.6562 8.03125 47.6562 8.64205V9.06818H42.6108V8.19886H46.6335C46.6335 7.82955 46.5597 7.5 46.4119 7.21023C46.267 6.92045 46.0597 6.69176 45.7898 6.52415C45.5227 6.35653 45.2074 6.27273 44.8438 6.27273C44.4432 6.27273 44.0966 6.37216 43.804 6.57102C43.5142 6.76705 43.2912 7.02273 43.1349 7.33807C42.9787 7.65341 42.9006 7.99148 42.9006 8.35227V8.93182C42.9006 9.42614 42.9858 9.84517 43.1562 10.1889C43.3295 10.5298 43.5696 10.7898 43.8764 10.9688C44.1832 11.1449 44.5398 11.233 44.946 11.233C45.2102 11.233 45.4489 11.196 45.6619 11.1222C45.8778 11.0455 46.0639 10.9318 46.2202 10.7812C46.3764 10.6278 46.4972 10.4375 46.5824 10.2102L47.554 10.483C47.4517 10.8125 47.2798 11.1023 47.0384 11.3523C46.7969 11.5994 46.4986 11.7926 46.1435 11.9318C45.7884 12.0682 45.3892 12.1364 44.946 12.1364ZM51.1122 12.1534C50.6974 12.1534 50.321 12.0753 49.983 11.919C49.6449 11.7599 49.3764 11.5312 49.1776 11.233C48.9787 10.9318 48.8793 10.5682 48.8793 10.142C48.8793 9.76705 48.9531 9.46307 49.1009 9.23011C49.2486 8.99432 49.446 8.80966 49.6932 8.67614C49.9403 8.54261 50.2131 8.44318 50.5114 8.37784C50.8125 8.30966 51.1151 8.25568 51.419 8.21591C51.8168 8.16477 52.1392 8.12642 52.3864 8.10085C52.6364 8.07244 52.8182 8.02557 52.9318 7.96023C53.0483 7.89489 53.1065 7.78125 53.1065 7.61932V7.58523C53.1065 7.16477 52.9915 6.83807 52.7614 6.60511C52.5341 6.37216 52.1889 6.25568 51.7259 6.25568C51.2457 6.25568 50.8693 6.3608 50.5966 6.57102C50.3239 6.78125 50.1321 7.00568 50.0213 7.24432L49.0668 6.90341C49.2372 6.50568 49.4645 6.19602 49.7486 5.97443C50.0355 5.75 50.348 5.59375 50.6861 5.50568C51.027 5.41477 51.3622 5.36932 51.6918 5.36932C51.902 5.36932 52.1435 5.39489 52.4162 5.44602C52.6918 5.49432 52.9574 5.59517 53.2131 5.74858C53.4716 5.90199 53.6861 6.13352 53.8565 6.44318C54.027 6.75284 54.1122 7.16761 54.1122 7.6875V12H53.1065V11.1136H53.0554C52.9872 11.2557 52.8736 11.4077 52.7145 11.5696C52.5554 11.7315 52.3438 11.8693 52.0795 11.983C51.8153 12.0966 51.4929 12.1534 51.1122 12.1534ZM51.2656 11.25C51.6634 11.25 51.9986 11.1719 52.2713 11.0156C52.5469 10.8594 52.7543 10.6577 52.8935 10.4105C53.0355 10.1634 53.1065 9.90341 53.1065 9.63068V8.71023C53.0639 8.76136 52.9702 8.80824 52.8253 8.85085C52.6832 8.89062 52.5185 8.92614 52.331 8.95739C52.1463 8.9858 51.9659 9.01136 51.7898 9.03409C51.6165 9.05398 51.4759 9.07102 51.3679 9.08523C51.1065 9.11932 50.8622 9.17472 50.6349 9.25142C50.4105 9.32528 50.2287 9.4375 50.0895 9.58807C49.9531 9.7358 49.8849 9.9375 49.8849 10.1932C49.8849 10.5426 50.0142 10.8068 50.2727 10.9858C50.5341 11.1619 50.8651 11.25 51.2656 11.25Z" fill="#00CD2D"/>
</svg>
